<?xml version="1.0" encoding="UTF-8"?>
<svg id="Layer_2" data-name="Layer 2" xmlns="http://www.w3.org/2000/svg" viewBox="0 0 633.16 247.62">
  <defs>
    <style>
      .cls-1 {
        fill: #f9f9f9;
      }

      .cls-2 {
        fill: #2164bf;
      }

      .cls-3 {
        fill: #ffdc5f;
      }
    </style>
  </defs>
  <g id="contenido">
    <g>
      <path class="cls-3" d="m455.07,235.32c-1.55,0-2.88.55-4,1.63-1.12,1.09-1.68,2.41-1.68,3.96s.56,2.88,1.68,4c1.12,1.12,2.45,1.68,4,1.68s2.88-.56,4-1.68c1.12-1.12,1.68-2.45,1.68-4s-.56-2.87-1.68-3.96c-1.12-1.09-2.45-1.63-4-1.63Z"/>
      <polygon class="cls-1" points="213.6 168.43 223.57 168.43 223.57 117.35 242.06 117.35 242.06 108.24 195.11 108.24 195.11 117.35 213.6 117.35 213.6 168.43"/>
      <path class="cls-1" d="m253.93,106c-1.55,0-2.88.55-4,1.63-1.12,1.09-1.68,2.41-1.68,3.96s.56,2.88,1.68,4c1.12,1.12,2.45,1.68,4,1.68s2.88-.56,4-1.68c1.12-1.12,1.68-2.45,1.68-4s-.56-2.87-1.68-3.96c-1.12-1.09-2.45-1.63-4-1.63Z"/>
      <polygon class="cls-1" points="249.11 168.43 258.66 168.43 258.74 125.44 249.2 125.44 249.11 168.43"/>
      <path class="cls-1" d="m337.95,168.43v-24.59c.06-6.59-1.35-11.48-4.21-14.66-2.87-3.18-6.91-4.77-12.13-4.77-3.38,0-6.31.85-8.77,2.54-2.38,1.63-4.22,3.99-5.53,7.06-.69-1.89-1.6-3.51-2.77-4.82-2.84-3.18-6.87-4.77-12.08-4.77-3.38,0-6.31.85-8.77,2.54-1.66,1.14-3.05,2.63-4.19,4.47l-.45-5.97h-9.03v43h9.63v-22.45c0-4.07.89-7.19,2.67-9.37,1.78-2.18,4.27-3.24,7.48-3.18,1.89,0,3.54.37,4.94,1.12,1.4.74,2.49,2.05,3.27,3.91.77,1.86,1.16,4.51,1.16,7.95v22.01h9.63v-22.45c0-4.07.89-7.19,2.67-9.37,1.78-2.18,4.3-3.24,7.57-3.18,1.83,0,3.45.37,4.86,1.12,1.4.74,2.51,2.05,3.31,3.91.8,1.86,1.2,4.51,1.2,7.95v22.01h9.55Z"/>
      <path class="cls-1" d="m378.02,154.33c-.92,1.84-2.21,3.34-3.87,4.51-1.66,1.18-3.78,1.76-6.36,1.76-2.35,0-4.49-.53-6.41-1.59-1.92-1.06-3.44-2.59-4.56-4.6-.83-1.5-1.35-3.22-1.57-5.16h32.48c0-5.16-.92-9.6-2.75-13.33-1.84-3.73-4.29-6.58-7.35-8.56-3.07-1.98-6.52-2.97-10.36-2.97-4.24,0-8.01.96-11.31,2.88-3.3,1.92-5.89,4.57-7.78,7.95-1.89,3.38-2.84,7.28-2.84,11.7s.93,8.31,2.79,11.7c1.86,3.38,4.41,6.03,7.65,7.95,3.24,1.92,6.95,2.88,11.14,2.88,3.27,0,6.18-.46,8.73-1.38,2.55-.92,4.76-2.24,6.62-3.96,1.86-1.72,3.4-3.73,4.6-6.02l-8.86-3.78Zm-21.5-15.01c.92-2.09,2.26-3.68,4.04-4.77,1.78-1.09,3.9-1.63,6.36-1.63s4.34.59,5.98,1.76c1.63,1.18,2.89,2.97,3.78,5.38.18.49.34,1.01.48,1.55h-21.39c.2-.81.44-1.58.74-2.28Z"/>
      <path class="cls-1" d="m456.62,161.04c1.66-2.64,2.49-5.68,2.49-9.12,0-3.9-1.49-7.45-4.47-10.66-2.98-3.21-7.17-5.48-12.55-6.79l-7.4-1.81c-2.52-.63-4.52-1.56-5.98-2.79-1.46-1.23-2.19-2.97-2.19-5.2,0-2.75.93-4.9,2.8-6.45,1.86-1.55,4.43-2.32,7.7-2.32s5.79.75,7.91,2.24c2.12,1.49,3.61,3.38,4.47,5.68l9.63-3.1c-.92-2.58-2.32-4.89-4.21-6.92-1.89-2.03-4.29-3.64-7.18-4.82-2.9-1.17-6.26-1.76-10.1-1.76-6.82,0-12.07,1.56-15.74,4.69-3.67,3.13-5.5,7.5-5.5,13.11,0,2.98.64,5.56,1.94,7.74,1.29,2.18,3.07,3.98,5.33,5.42,2.26,1.43,4.8,2.52,7.61,3.27l7.4,1.89c3.1.8,5.56,1.93,7.4,3.4,1.83,1.46,2.75,3.34,2.75,5.63,0,2.52-1.09,4.56-3.27,6.11-2.18,1.55-5.13,2.32-8.86,2.32-3.21-.06-5.91-.89-8.08-2.49-2.18-1.6-3.64-3.47-4.39-5.59l-9.8,3.01c.52,1.78,1.42,3.48,2.71,5.12,1.29,1.63,2.92,3.11,4.9,4.43,1.98,1.32,4.27,2.35,6.88,3.1,2.61.74,5.49,1.12,8.64,1.12,4.64,0,8.59-.75,11.82-2.24,3.24-1.49,5.69-3.55,7.35-6.19Z"/>
      <path class="cls-1" d="m490.84,124.4c-3.38,0-6.31.85-8.77,2.54-1.6,1.1-2.96,2.53-4.09,4.28l-.03-23.76h-9.63l.09,60.97h9.63l-.03-22.45h.03c0-4.07.87-7.19,2.62-9.37,1.75-2.18,4.26-3.24,7.52-3.18,1.83,0,3.45.37,4.86,1.12,1.4.74,2.51,2.05,3.31,3.91.8,1.86,1.2,4.51,1.2,7.95v22.01h9.63v-24.59c0-6.59-1.43-11.48-4.3-14.66-2.87-3.18-6.88-4.77-12.04-4.77Z"/>
      <path class="cls-1" d="m543.94,126.73c-2.78-1.55-6.26-2.32-10.45-2.32-3.27,0-6.09.49-8.47,1.46-2.38.98-4.34,2.29-5.89,3.96-1.55,1.66-2.81,3.44-3.78,5.33l8.77,3.1c1.03-1.78,2.32-3.1,3.87-3.96,1.55-.86,3.32-1.29,5.33-1.29,2.18,0,3.94.52,5.29,1.55,1.35,1.03,2.34,2.52,2.97,4.47.33,1.04.57,2.22.73,3.53h-10.71c-5.39,0-9.59,1.18-12.6,3.53-3.01,2.35-4.51,5.76-4.51,10.23,0,4.19,1.42,7.43,4.26,9.72,2.84,2.29,6.84,3.44,12,3.44s9.07-1.68,11.57-5.03c.14-.19.27-.4.4-.6l.24,4.6h9.03l.26-23.56c0-4.47-.69-8.23-2.06-11.26-1.38-3.04-3.45-5.33-6.23-6.88Zm-1.42,23.91c0,1.89-.45,3.66-1.33,5.29-.89,1.63-2.12,2.95-3.7,3.96-1.58,1-3.43,1.5-5.55,1.5-2.41,0-4.29-.47-5.63-1.42-1.35-.95-2.02-2.25-2.02-3.91,0-1.95.77-3.45,2.32-4.52,1.55-1.06,4.24-1.59,8.08-1.59h7.83v.69Z"/>
      <path class="cls-1" d="m571.59,133.18v-7.74h-9.63v43h9.63v-23.05c0-2.64.72-4.76,2.15-6.36,1.43-1.6,3.31-2.77,5.63-3.48,2.32-.72,4.8-1.08,7.44-1.08v-9.2c-3.1,0-6.06.73-8.9,2.19-2.53,1.3-4.63,3.21-6.32,5.72Z"/>
      <path class="cls-1" d="m619.58,158.85c-1.66,1.18-3.78,1.76-6.36,1.76-2.35,0-4.49-.53-6.41-1.59-1.92-1.06-3.44-2.59-4.56-4.6-.83-1.5-1.35-3.22-1.57-5.16h32.48c0-5.16-.92-9.6-2.75-13.33-1.84-3.73-4.29-6.58-7.35-8.56-3.07-1.98-6.52-2.97-10.36-2.97-4.24,0-8.01.96-11.31,2.88-3.3,1.92-5.89,4.57-7.78,7.95-1.89,3.38-2.84,7.28-2.84,11.7s.93,8.31,2.79,11.7c1.86,3.38,4.41,6.03,7.65,7.95,3.24,1.92,6.95,2.88,11.14,2.88,3.27,0,6.18-.46,8.73-1.38,2.55-.92,4.76-2.24,6.62-3.96,1.86-1.72,3.4-3.73,4.6-6.02l-8.86-3.78c-.92,1.84-2.21,3.34-3.87,4.51Zm-17.63-19.52c.92-2.09,2.26-3.68,4.04-4.77,1.78-1.09,3.9-1.63,6.36-1.63s4.34.59,5.98,1.76c1.63,1.18,2.89,2.97,3.78,5.38.18.49.34,1.01.48,1.55h-21.39c.2-.81.44-1.58.74-2.28Z"/>
      <path class="cls-1" d="m232,223.02h14.42c-.11,2.89-.86,5.48-2.26,7.74-1.52,2.47-3.6,4.39-6.23,5.76-2.64,1.38-5.62,2.06-8.94,2.06-4.24,0-7.98-.95-11.22-2.84-3.24-1.89-5.76-4.5-7.57-7.83-1.81-3.32-2.71-7.11-2.71-11.35s.92-8.18,2.75-11.48c1.83-3.3,4.34-5.89,7.52-7.78,3.18-1.89,6.84-2.84,10.96-2.84,2.12,0,4.2.36,6.23,1.07,2.03.72,3.91,1.74,5.63,3.05,1.72,1.32,3.12,2.81,4.21,4.47l8.08-5.16c-1.55-2.46-3.55-4.63-6.02-6.49-2.47-1.86-5.23-3.34-8.3-4.43-3.07-1.09-6.35-1.63-9.85-1.63-6.08,0-11.48,1.33-16.21,4-4.73,2.67-8.44,6.34-11.14,11.01-2.7,4.67-4.04,10.08-4.04,16.21s1.35,11.37,4.04,16.04c2.69,4.67,6.41,8.34,11.14,11.01,4.73,2.67,10.13,4,16.21,4,5.33,0,10.05-1.08,14.15-3.23,4.1-2.15,7.31-5.22,9.63-9.2,2.23-3.83,3.38-8.35,3.47-13.54h.02v-6.71h-23.99v8.08Z"/>
      <rect class="cls-1" x="263.82" y="186.39" width="9.63" height="60.2"/>
      <path class="cls-1" d="m315.16,205.44c-3.33-1.92-7.17-2.88-11.52-2.88s-8.03.96-11.35,2.88c-3.33,1.92-5.92,4.57-7.78,7.95-1.86,3.38-2.79,7.28-2.79,11.7s.95,8.31,2.84,11.7c1.89,3.38,4.5,6.03,7.83,7.95,3.32,1.92,7.17,2.88,11.52,2.88s8.01-.96,11.31-2.88c3.3-1.92,5.88-4.57,7.74-7.95,1.86-3.38,2.8-7.28,2.8-11.7s-.93-8.31-2.8-11.7c-1.86-3.38-4.46-6.03-7.78-7.95Zm-.69,26.74c-1.03,2.04-2.45,3.64-4.26,4.82-1.8,1.18-3.91,1.76-6.32,1.76s-4.54-.59-6.41-1.76c-1.86-1.17-3.33-2.78-4.39-4.82-1.06-2.03-1.59-4.4-1.59-7.09s.52-5.06,1.55-7.09c1.03-2.03,2.46-3.64,4.3-4.82,1.83-1.17,3.96-1.76,6.36-1.76s4.54.59,6.41,1.76c1.86,1.18,3.31,2.78,4.34,4.82,1.03,2.04,1.55,4.4,1.55,7.09s-.52,5.06-1.55,7.09Z"/>
      <path class="cls-1" d="m367.48,205.35c-2.9-1.86-6.29-2.79-10.19-2.79-3.61,0-6.72.93-9.33,2.79-1.67,1.2-3.09,2.7-4.26,4.51v-23.47h-9.63v60.2h9.12l.42-6.45c1.18,1.89,2.63,3.46,4.36,4.69,2.61,1.86,5.72,2.8,9.33,2.8,3.9,0,7.29-.93,10.19-2.8,2.89-1.86,5.16-4.48,6.79-7.87,1.63-3.38,2.45-7.34,2.45-11.87s-.82-8.56-2.45-11.91c-1.63-3.35-3.9-5.96-6.79-7.83Zm-2.24,26.87c-1.06,2.06-2.48,3.68-4.26,4.86-1.78,1.18-3.81,1.76-6.11,1.76s-4.11-.59-5.8-1.76c-1.69-1.17-3.01-2.79-3.96-4.86-.95-2.06-1.42-4.44-1.42-7.14s.47-4.99,1.42-7.05c.95-2.06,2.28-3.68,4-4.86,1.72-1.17,3.67-1.76,5.85-1.76,2.35,0,4.41.57,6.19,1.72,1.78,1.15,3.17,2.75,4.17,4.82,1,2.06,1.5,4.44,1.5,7.14s-.53,5.07-1.59,7.14Z"/>
      <path class="cls-1" d="m412.03,204.88c-2.78-1.55-6.26-2.32-10.45-2.32-3.27,0-6.09.49-8.47,1.46-2.38.98-4.34,2.29-5.89,3.96-1.55,1.66-2.81,3.44-3.78,5.33l8.77,3.1c1.03-1.78,2.32-3.1,3.87-3.96,1.55-.86,3.32-1.29,5.33-1.29,2.18,0,3.94.52,5.29,1.55,1.35,1.03,2.34,2.52,2.97,4.47.33,1.04.57,2.22.73,3.53h-10.71c-5.39,0-9.59,1.18-12.6,3.53-3.01,2.35-4.51,5.76-4.51,10.23,0,4.19,1.42,7.43,4.26,9.72,2.84,2.29,6.84,3.44,12,3.44s9.07-1.68,11.57-5.03c.14-.19.27-.4.4-.6l.24,4.6h9.03l.26-23.56c0-4.47-.69-8.23-2.06-11.27-1.38-3.04-3.45-5.33-6.23-6.88Zm-1.42,23.91c0,1.89-.45,3.65-1.33,5.29-.89,1.63-2.12,2.95-3.7,3.96-1.58,1-3.43,1.5-5.55,1.5-2.41,0-4.29-.47-5.63-1.42-1.35-.95-2.02-2.25-2.02-3.91,0-1.95.77-3.45,2.32-4.52,1.55-1.06,4.24-1.59,8.08-1.59h7.83v.69Z"/>
      <rect class="cls-1" x="430.05" y="186.39" width="9.63" height="60.2"/>
      <path class="cls-2" d="m170.05,78.75c-.05-.66-.09-1.31-.15-1.97-.1-.99-.23-1.98-.36-2.96-.05-.36-.08-.72-.14-1.08-.17-1.18-.38-2.34-.6-3.5-.03-.15-.05-.3-.08-.44-.6-3.09-1.36-6.12-2.29-9.08-.11-.41-.24-.81-.41-1.2-8.04-24.35-26.78-43.86-50.63-52.95-.16-.06-.31-.13-.47-.19-.92-.34-1.85-.66-2.79-.97-.38-.13-.76-.26-1.14-.39-.81-.26-1.63-.49-2.45-.73-.51-.15-1.03-.3-1.55-.44-.75-.2-1.5-.38-2.26-.55-.6-.14-1.2-.29-1.8-.42-.72-.15-1.44-.29-2.17-.42-.65-.12-1.29-.24-1.95-.35-.72-.12-1.44-.21-2.16-.31-.67-.09-1.33-.18-2-.26-.73-.08-1.47-.15-2.2-.21-.41-.03-.81-.09-1.23-.12h0c-.33-.02-.67-.03-1-.05-.43-.03-.86-.05-1.29-.07-1.28-.06-2.55-.1-3.79-.1s-2.52.04-3.8.1c-.43.02-.85.04-1.28.07-.34.02-.67.03-1,.05h0c-.41.03-.82.08-1.23.12-.73.06-1.47.13-2.19.21-.68.08-1.35.17-2.02.26-.72.1-1.43.19-2.14.31-.66.11-1.31.23-1.97.35-.72.13-1.44.27-2.15.42-.61.13-1.22.28-1.83.42-.75.18-1.49.35-2.23.55-.53.14-1.05.3-1.58.45-.81.23-1.62.46-2.42.72-.39.13-.78.27-1.17.4-.92.31-1.85.62-2.75.96-.17.07-.34.14-.52.2C31.04,14.68,12.32,34.19,4.29,58.53c-.16.37-.29.77-.39,1.16-.93,2.96-1.69,6-2.3,9.1-.03.15-.05.3-.08.44-.22,1.16-.43,2.32-.6,3.5-.05.36-.09.72-.14,1.08-.13.98-.26,1.97-.36,2.96-.06.65-.1,1.31-.15,1.97-.05.72-.12,1.45-.16,2.18-.07,1.41-.11,2.82-.11,4.24,0,16.58,4.08,35.2,12.12,55.34,5.42,13.58,12.7,27.99,21.62,42.82,20.89,34.74,43.7,60.22,44.66,61.29,1.73,1.92,4.19,3.01,6.76,3.01.21,0,.42,0,.63-.02,2.79-.19,5.34-1.66,6.9-3.98l32.85-48.65c3.07,3.61,6.13,7.22,9.2,10.83,2.32,2.73,4.64,5.48,6.98,8.2,1.47,1.71,3.17,1.51,4.41-.26,1.52-2.15,2.96-4.36,4.39-6.57,1.12-1.72,1.38-3.57.45-5.46-1.84-3.73-3.7-7.44-5.55-11.16-2.39-4.8-4.78-9.6-7.17-14.4l11.6-17.18c2.81-4.16,1.71-9.81-2.45-12.61-4.16-2.81-9.81-1.71-12.61,2.45l-11.44,16.95c-1.87-.15-3.73-.29-5.6-.43-7.45-.54-14.89-1.07-22.33-1.64-2.2-.17-3.91.62-5.15,2.38-1.56,2.21-3.07,4.47-4.55,6.73-.53.81-.76,1.73-.3,2.68.38.78,1.08,1.18,1.87,1.44,7.79,2.55,15.57,5.1,23.36,7.65l-26.29,38.94c-8.31-10.18-22.18-28.18-35.03-49.54-8.42-13.99-15.25-27.52-20.32-40.19-2.26-5.66-4.13-11.13-5.68-16.45h92.78s.03,0,.04,0c0,0,.02,0,.03,0h41.5c.67,0,1.32-.08,1.94-.21,3.85-.38,7.18-3.21,8.01-7.2,1.79-8.61,2.7-16.94,2.7-24.74,0-1.42-.04-2.83-.11-4.24-.04-.73-.1-1.45-.16-2.18Zm-102.5-28.07c.3-.71.63-1.4.95-2.1.36-.79.73-1.57,1.11-2.34.34-.69.71-1.36,1.07-2.04.4-.75.81-1.5,1.23-2.24.38-.66.78-1.32,1.19-1.97.44-.72.89-1.43,1.35-2.13.42-.64.86-1.26,1.3-1.89.48-.68.97-1.36,1.47-2.02.46-.61.93-1.2,1.4-1.79.52-.65,1.05-1.28,1.59-1.91.49-.57,1-1.14,1.5-1.69.56-.61,1.13-1.21,1.7-1.79.53-.54,1.06-1.06,1.6-1.58.04-.04.09-.08.14-.12.04.04.09.08.13.12.54.52,1.08,1.05,1.61,1.59.57.58,1.14,1.18,1.69,1.78.51.56,1.02,1.13,1.52,1.7.54.62,1.06,1.26,1.58,1.9.48.59.95,1.19,1.41,1.8.5.66.99,1.33,1.47,2.01.44.63.88,1.25,1.3,1.9.46.7.91,1.41,1.35,2.12.4.65.81,1.31,1.19,1.98.42.73.83,1.48,1.23,2.23.36.68.73,1.36,1.07,2.05.38.77.75,1.55,1.11,2.33.32.7.65,1.4.95,2.1.33.77.63,1.55.94,2.32h-37.09c.31-.78.61-1.56.94-2.33Zm-24.27,48.46h-24c-.71-4.85-1.1-9.53-1.1-13.98,0-1.05.03-2.1.08-3.15.01-.22.03-.43.04-.65.02-.32.04-.63.07-.94.04-.52.07-1.04.12-1.55.02-.17.04-.35.05-.52.05-.53.12-1.07.19-1.6.05-.37.09-.75.14-1.12,0-.06.02-.11.02-.17.11-.73.23-1.45.36-2.17.05-.27.09-.54.14-.81.09-.44.19-.87.28-1.31h23.64c-.01.09-.02.17-.03.26-.03.23-.07.47-.09.7-.16,1.28-.29,2.58-.4,3.87-.03.34-.05.68-.08,1.02-.08,1.01-.14,2.02-.19,3.03-.02.38-.04.76-.05,1.14-.05,1.32-.08,2.64-.08,3.96,0,4.79.3,9.42.89,13.98Zm15.51-70.52c-.66,1.03-1.31,2.07-1.94,3.12-.15.25-.29.5-.43.75-.49.84-.97,1.69-1.44,2.54-.18.34-.36.67-.54,1.01-.49.93-.97,1.86-1.43,2.81-.09.18-.19.37-.28.55-.54,1.11-1.05,2.24-1.55,3.38-.14.33-.28.66-.42.98-.37.87-.73,1.74-1.07,2.62-.14.35-.27.69-.41,1.04-.45,1.17-.88,2.35-1.28,3.54-.04.1-.07.21-.1.31-.19.57-.37,1.15-.56,1.72h-20.89c5.84-10.6,14.46-19.49,24.9-25.64.03-.02.06-.03.08-.05.83-.49,1.67-.95,2.52-1.41.09-.05.17-.09.26-.13.8-.42,1.62-.83,2.44-1.22.14-.06.28-.12.41-.19.77-.36,1.55-.71,2.34-1.04.06-.03.12-.05.18-.07.12-.05.24-.09.36-.14.69-.28,1.39-.56,2.1-.82.22-.08.44-.16.66-.24.33-.12.67-.23,1-.34-.06.08-.12.16-.18.24-.67.86-1.33,1.74-1.97,2.63-.22.3-.43.6-.64.9-.55.78-1.09,1.58-1.62,2.38-.17.25-.34.5-.5.75Zm49.85,70.52h-46.98c-.72-4.54-1.1-9.15-1.1-13.98,0-1.74.05-3.47.15-5.19.03-.58.1-1.15.15-1.72.09-1.14.17-2.28.3-3.41.08-.69.2-1.36.29-2.05.08-.54.15-1.08.24-1.61h46.94c.08.54.16,1.07.24,1.61.1.68.21,1.36.29,2.05.13,1.13.21,2.27.3,3.41.04.57.11,1.14.15,1.72.1,1.72.15,3.45.15,5.19,0,4.71-.4,9.39-1.12,13.98Zm13.77-47.88c-.03-.09-.06-.19-.09-.28-.41-1.19-.84-2.38-1.29-3.55-.13-.34-.27-.68-.4-1.02-.35-.89-.71-1.78-1.09-2.65-.14-.32-.27-.64-.41-.96-.5-1.14-1.02-2.28-1.56-3.4-.08-.17-.17-.34-.25-.51-.47-.96-.96-1.92-1.46-2.86-.17-.33-.35-.65-.52-.97-.48-.88-.97-1.75-1.47-2.61-.13-.23-.26-.46-.4-.69-.63-1.06-1.29-2.12-1.96-3.15-.15-.23-.31-.46-.46-.69-.55-.83-1.1-1.64-1.67-2.45-.2-.28-.4-.57-.6-.85-.67-.92-1.35-1.84-2.05-2.73-.04-.05-.08-.11-.12-.16.34.11.68.22,1.01.34.21.08.43.15.64.23.73.27,1.45.55,2.17.85.09.04.19.07.28.11.06.03.13.05.19.08.8.34,1.59.69,2.38,1.06.12.06.25.11.37.17.83.39,1.65.81,2.46,1.23.08.04.16.08.24.12.86.45,1.7.93,2.54,1.42.02.01.04.02.06.04,10.44,6.15,19.06,15.04,24.9,25.64h-20.89c-.19-.58-.37-1.17-.57-1.75Zm28.64,47.88h-24.05c.6-4.62.93-9.28.93-13.98,0-1.33-.03-2.65-.08-3.96-.01-.38-.03-.76-.05-1.14-.05-1.01-.11-2.02-.19-3.03-.03-.34-.05-.68-.08-1.02-.11-1.3-.24-2.59-.4-3.88-.03-.23-.06-.46-.09-.69-.01-.09-.02-.18-.04-.27h23.64c.09.44.2.87.28,1.31.05.27.1.54.14.81.13.72.25,1.44.36,2.16,0,.06.02.12.03.17.05.37.1.74.14,1.12.07.53.13,1.06.19,1.6.02.17.04.35.05.52.05.52.08,1.03.12,1.55.02.31.05.63.07.94.01.22.03.43.04.65.05,1.04.08,2.09.08,3.15,0,4.44-.39,9.13-1.09,13.98Z"/>
      <path class="cls-3" d="m156.49,123.81c-2.47,0-4.6.87-6.39,2.61-1.79,1.74-2.68,3.85-2.68,6.32s.89,4.6,2.68,6.39c1.79,1.79,3.92,2.68,6.39,2.68s4.6-.89,6.39-2.68c1.79-1.78,2.68-3.92,2.68-6.39s-.89-4.58-2.68-6.32c-1.79-1.74-3.92-2.61-6.39-2.61Z"/>
    </g>
  </g>
</svg>